# xmcd
#
# Track frame offsets:
#  150
#  12530
#  42892
#  68080
#  82887
#  110565
#  129954
#  156332
#
# Disc length: 2888 seconds
#
# Revision: 0
# Processed by: cddbd v1.5.1PL2 Copyright (c) Steve Scherf et al.
# Submitted via: Collectorz.com_Music_Collector 6.11
#
DISCID=5f0b4608
DTITLE=Calexico - Bremen, August 30, 2000 [CD2)
DYEAR=1900
DGENRE=
TTITLE0=Ojitos Traidores
TTITLE1=Stray
TTITLE2=Cucurrucucu Paloma
TTITLE3=Hey Baby, Que Paso
TTITLE4=Frontera/Trigger
TTITLE5=Spokes
TTITLE6=Cascabel
TTITLE7=Crystal Frontier
EXTD=
EXTT0=
EXTT1=
EXTT2=
EXTT3=
EXTT4=
EXTT5=
EXTT6=
EXTT7=
PLAYORDER=
